<mxfile host="Electron" modified="2023-11-09T09:39:58.999Z" agent="Mozilla/5.0 (Windows NT 10.0; Win64; x64) AppleWebKit/537.36 (KHTML, like Gecko) draw.io/22.0.3 Chrome/114.0.5735.289 Electron/25.8.4 Safari/537.36" etag="soFybjrQOFssJDFNQp4v" version="22.0.3" type="device">
  <diagram name="Trang-1" id="6GA-0uP7hUUSEchrSSzc">
    <mxGraphModel dx="898" dy="547" grid="1" gridSize="10" guides="1" tooltips="1" connect="1" arrows="1" fold="1" page="1" pageScale="1" pageWidth="1169" pageHeight="1654" math="0" shadow="0">
      <root>
        <mxCell id="0" />
        <mxCell id="1" parent="0" />
        <mxCell id="P3JV496vFg3L4RixxD6E-4" value="" style="edgeStyle=orthogonalEdgeStyle;rounded=0;orthogonalLoop=1;jettySize=auto;html=1;" edge="1" parent="1" source="P3JV496vFg3L4RixxD6E-1" target="P3JV496vFg3L4RixxD6E-3">
          <mxGeometry relative="1" as="geometry" />
        </mxCell>
        <mxCell id="P3JV496vFg3L4RixxD6E-1" value="start" style="ellipse;whiteSpace=wrap;html=1;" vertex="1" parent="1">
          <mxGeometry x="330" y="190" width="120" height="80" as="geometry" />
        </mxCell>
        <mxCell id="P3JV496vFg3L4RixxD6E-2" value="" style="ellipse;whiteSpace=wrap;html=1;" vertex="1" parent="1">
          <mxGeometry x="340" y="1510" width="120" height="80" as="geometry" />
        </mxCell>
        <mxCell id="P3JV496vFg3L4RixxD6E-8" value="" style="edgeStyle=orthogonalEdgeStyle;rounded=0;orthogonalLoop=1;jettySize=auto;html=1;" edge="1" parent="1" source="P3JV496vFg3L4RixxD6E-3" target="P3JV496vFg3L4RixxD6E-5">
          <mxGeometry relative="1" as="geometry" />
        </mxCell>
        <mxCell id="P3JV496vFg3L4RixxD6E-11" style="edgeStyle=orthogonalEdgeStyle;rounded=0;orthogonalLoop=1;jettySize=auto;html=1;entryX=1;entryY=0.5;entryDx=0;entryDy=0;" edge="1" parent="1" source="P3JV496vFg3L4RixxD6E-3" target="P3JV496vFg3L4RixxD6E-9">
          <mxGeometry relative="1" as="geometry">
            <Array as="points">
              <mxPoint x="550" y="370" />
              <mxPoint x="550" y="610" />
            </Array>
          </mxGeometry>
        </mxCell>
        <mxCell id="P3JV496vFg3L4RixxD6E-3" value="ngày ; tháng ; năm&amp;nbsp;&lt;br&gt;năm&amp;gt;0&lt;br&gt;0&amp;lt;tháng&amp;lt;12&lt;br&gt;ngày =&amp;lt; số ngày có tháng&amp;nbsp; &amp;nbsp;" style="shape=parallelogram;perimeter=parallelogramPerimeter;whiteSpace=wrap;html=1;fixedSize=1;" vertex="1" parent="1">
          <mxGeometry x="330" y="340" width="120" height="60" as="geometry" />
        </mxCell>
        <mxCell id="P3JV496vFg3L4RixxD6E-10" value="" style="edgeStyle=orthogonalEdgeStyle;rounded=0;orthogonalLoop=1;jettySize=auto;html=1;" edge="1" parent="1" source="P3JV496vFg3L4RixxD6E-5" target="P3JV496vFg3L4RixxD6E-9">
          <mxGeometry relative="1" as="geometry" />
        </mxCell>
        <mxCell id="P3JV496vFg3L4RixxD6E-5" value="ngày tháng&amp;nbsp;" style="shape=parallelogram;perimeter=parallelogramPerimeter;whiteSpace=wrap;html=1;fixedSize=1;" vertex="1" parent="1">
          <mxGeometry x="330" y="480" width="120" height="60" as="geometry" />
        </mxCell>
        <mxCell id="P3JV496vFg3L4RixxD6E-9" value="end" style="ellipse;whiteSpace=wrap;html=1;" vertex="1" parent="1">
          <mxGeometry x="330" y="570" width="120" height="80" as="geometry" />
        </mxCell>
      </root>
    </mxGraphModel>
  </diagram>
</mxfile>
